<svg width="127" height="43" viewBox="0 0 127 43" fill="none" xmlns="http://www.w3.org/2000/svg">
<g filter="url(#filter0_d_1_5)">
<path d="M11.992 0.735999V27.76H24.952L24.136 34H4.12V0.735999H11.992ZM49.3863 34H42.8103L42.4743 30.784C40.6183 33.472 38.0423 34.816 34.7463 34.816C32.4103 34.816 30.6343 34.112 29.4183 32.704C28.2343 31.296 27.6423 29.328 27.6423 26.8V8.512H35.2263V25.84C35.2263 27.088 35.4183 27.968 35.8023 28.48C36.2183 28.96 36.8423 29.2 37.6743 29.2C39.2743 29.2 40.6503 28.208 41.8023 26.224V8.512H49.3863V34ZM66.391 7.696C68.151 7.696 69.735 7.952 71.143 8.464C72.551 8.976 73.879 9.76 75.127 10.816L71.863 15.328C70.263 14.112 68.647 13.504 67.015 13.504C65.319 13.504 64.039 14.128 63.175 15.376C62.311 16.624 61.879 18.64 61.879 21.424C61.879 24.112 62.311 26.016 63.175 27.136C64.039 28.256 65.287 28.816 66.919 28.816C67.783 28.816 68.567 28.688 69.271 28.432C69.975 28.144 70.823 27.696 71.815 27.088L75.127 31.792C72.599 33.808 69.735 34.816 66.535 34.816C63.943 34.816 61.703 34.272 59.815 33.184C57.927 32.064 56.471 30.512 55.447 28.528C54.423 26.512 53.911 24.16 53.911 21.472C53.911 18.784 54.423 16.4 55.447 14.32C56.471 12.24 57.927 10.624 59.815 9.472C61.703 8.288 63.895 7.696 66.391 7.696ZM98.107 26.608C98.107 27.568 98.235 28.272 98.491 28.72C98.779 29.168 99.227 29.504 99.835 29.728L98.251 34.672C96.683 34.544 95.403 34.208 94.411 33.664C93.419 33.088 92.651 32.192 92.107 30.976C90.443 33.536 87.883 34.816 84.427 34.816C81.899 34.816 79.883 34.08 78.379 32.608C76.875 31.136 76.123 29.216 76.123 26.848C76.123 24.064 77.147 21.936 79.195 20.464C81.243 18.992 84.203 18.256 88.075 18.256H90.667V17.152C90.667 15.648 90.347 14.624 89.707 14.08C89.067 13.504 87.947 13.216 86.347 13.216C85.515 13.216 84.507 13.344 83.323 13.6C82.139 13.824 80.923 14.144 79.675 14.56L77.947 9.568C79.547 8.96 81.179 8.496 82.843 8.176C84.539 7.856 86.107 7.696 87.547 7.696C91.195 7.696 93.867 8.448 95.563 9.952C97.259 11.456 98.107 13.712 98.107 16.72V26.608ZM86.635 29.392C88.363 29.392 89.707 28.576 90.667 26.944V22.432H88.795C87.067 22.432 85.771 22.736 84.907 23.344C84.075 23.952 83.659 24.896 83.659 26.176C83.659 27.2 83.915 28 84.427 28.576C84.971 29.12 85.707 29.392 86.635 29.392ZM112.655 7.696C114.479 7.696 116.191 7.968 117.791 8.512C119.391 9.056 120.799 9.824 122.015 10.816L119.231 15.088C117.151 13.776 115.055 13.12 112.943 13.12C111.951 13.12 111.183 13.296 110.639 13.648C110.127 13.968 109.871 14.432 109.871 15.04C109.871 15.52 109.983 15.92 110.207 16.24C110.463 16.528 110.959 16.832 111.695 17.152C112.431 17.472 113.567 17.856 115.103 18.304C117.759 19.072 119.727 20.08 121.007 21.328C122.319 22.544 122.975 24.24 122.975 26.416C122.975 28.144 122.479 29.648 121.487 30.928C120.495 32.176 119.135 33.136 117.407 33.808C115.679 34.48 113.759 34.816 111.647 34.816C109.503 34.816 107.503 34.48 105.647 33.808C103.823 33.136 102.271 32.208 100.991 31.024L104.687 26.896C106.831 28.56 109.087 29.392 111.455 29.392C112.607 29.392 113.503 29.184 114.143 28.768C114.815 28.352 115.151 27.76 115.151 26.992C115.151 26.384 115.023 25.904 114.767 25.552C114.511 25.2 114.015 24.88 113.279 24.592C112.543 24.272 111.375 23.888 109.775 23.44C107.247 22.704 105.359 21.68 104.111 20.368C102.863 19.056 102.239 17.424 102.239 15.472C102.239 14 102.655 12.688 103.487 11.536C104.351 10.352 105.567 9.424 107.135 8.752C108.735 8.048 110.575 7.696 112.655 7.696Z" fill="#141414"/>
</g>
<defs>
<filter id="filter0_d_1_5" x="0.119995" y="0.736" width="126.855" height="42.08" filterUnits="userSpaceOnUse" color-interpolation-filters="sRGB">
<feFlood flood-opacity="0" result="BackgroundImageFix"/>
<feColorMatrix in="SourceAlpha" type="matrix" values="0 0 0 0 0 0 0 0 0 0 0 0 0 0 0 0 0 0 127 0" result="hardAlpha"/>
<feOffset dy="4"/>
<feGaussianBlur stdDeviation="2"/>
<feComposite in2="hardAlpha" operator="out"/>
<feColorMatrix type="matrix" values="0 0 0 0 0 0 0 0 0 0 0 0 0 0 0 0 0 0 0.25 0"/>
<feBlend mode="normal" in2="BackgroundImageFix" result="effect1_dropShadow_1_5"/>
<feBlend mode="normal" in="SourceGraphic" in2="effect1_dropShadow_1_5" result="shape"/>
</filter>
</defs>
</svg>
