<svg width="120" height="40" viewBox="0 0 120 40" fill="none" xmlns="http://www.w3.org/2000/svg">
<path d="M7.99212 3.736V30.76H20.9521L20.1361 37H0.120117V3.736H7.99212Z" fill="#141414"/>
<path d="M34.4067 30.76V3.736H43.4807V37H24.3567V30.76H34.4067Z" fill="#141414"/>
<path d="M53.9921 3.736V30.76H66.9521L66.1361 37H46.1201V3.736H53.9921Z" fill="#141414"/>
<path d="M79.4067 10.696C83.3107 10.696 86.3667 11.896 88.5747 14.296C90.7827 16.664 91.8867 19.992 91.8867 24.28C91.8867 27 91.3747 29.384 90.3507 31.432C89.3587 33.448 87.9187 35.016 86.0307 36.136C84.1747 37.256 81.9667 37.816 79.4067 37.816C75.5347 37.816 72.4787 36.632 70.2387 34.264C68.0307 31.864 66.9267 28.52 66.9267 24.232C66.9267 21.512 67.4227 19.144 68.4147 17.128C69.4387 15.08 70.8787 13.496 72.7347 12.376C74.6227 11.256 76.8467 10.696 79.4067 10.696ZM79.4067 16.264C77.8707 16.264 76.7187 16.92 75.9507 18.232C75.1827 19.512 74.7987 21.512 74.7987 24.232C74.7987 27.016 75.1667 29.048 75.9027 30.328C76.6707 31.608 77.8387 32.248 79.4067 32.248C80.9427 32.248 82.0947 31.608 82.8627 30.328C83.6307 29.016 84.0147 27 84.0147 24.28C84.0147 21.496 83.6307 19.464 82.8627 18.184C82.1267 16.904 80.9747 16.264 79.4067 16.264Z" fill="#141414"/>
<path d="M103.846 10.696C106.886 10.696 109.222 11.896 110.854 14.296C112.486 16.664 113.302 19.992 113.302 24.28C113.302 26.904 112.886 29.24 112.054 31.288C111.254 33.336 110.086 34.936 108.55 36.088C107.046 37.24 105.254 37.816 103.174 37.816C101.798 37.816 100.534 37.528 99.382 36.952C98.262 36.376 97.302 35.576 96.502 34.552L96.118 37H89.398V1.38399L96.982 0.567993V14.104C97.75 13.048 98.726 12.216 99.91 11.608C101.126 11 102.438 10.696 103.846 10.696ZM100.966 32.296C103.942 32.296 105.43 29.624 105.43 24.28C105.43 21.24 105.078 19.144 104.374 17.992C103.67 16.84 102.646 16.264 101.302 16.264C99.606 16.264 98.166 17.256 96.982 19.24V29.848C97.462 30.616 98.038 31.224 98.71 31.672C99.414 32.088 100.166 32.296 100.966 32.296Z" fill="#141414"/>
</svg>
