<svg width="64" height="65" viewBox="0 0 64 65" fill="none" xmlns="http://www.w3.org/2000/svg">
<g clip-path="url(#clip0_118_210)">
<path d="M9.407 57.9814L4.38 1.59595H59.62L54.588 57.9729L31.9665 64.2444L9.407 57.9814Z" fill="#1572B6"/>
<path d="M32.0005 59.4508L50.28 54.3828L54.5805 6.20581H32.0005V59.4508Z" fill="#33A9DC"/>
<path d="M32.0005 26.6345H41.1515L41.7835 19.553H32.0005V12.6375H49.3415L49.1755 14.493L47.4755 33.55H32.0005V26.6345Z" fill="white"/>
<path d="M32.0415 44.5943L32.011 44.6033L24.3095 42.5238L23.817 37.0083H16.876L17.8445 47.8668L32.01 51.7983L32.0415 51.7893V44.5943Z" fill="#EBEBEB"/>
<path d="M40.5635 33.2573L39.7305 42.5183L32.0175 44.6003V51.7953L46.1945 47.8663L46.2985 46.6978L47.5015 33.2573H40.5635Z" fill="white"/>
<path d="M32.024 12.6375V19.553H15.32L15.1815 17.999L14.8665 14.493L14.701 12.6375H32.024ZM32.0005 26.6355V33.551H24.396L24.2575 31.997L23.942 28.491L23.777 26.6355H32.0005Z" fill="#EBEBEB"/>
</g>
<defs>
<clipPath id="clip0_118_210">
<rect width="64" height="64" fill="white" transform="translate(0 0.919922)"/>
</clipPath>
</defs>
</svg>
