<svg width="64" height="65" viewBox="0 0 64 65" fill="none" xmlns="http://www.w3.org/2000/svg">
<g clip-path="url(#clip0_118_205)">
<path d="M9.51849 57.858L4.51599 1.75049H59.484L54.476 57.8495L31.9665 64.0895L9.51849 57.858Z" fill="#E44D26"/>
<path d="M32 59.3199L50.189 54.2769L54.4685 6.33789H32V59.3199Z" fill="#F16529"/>
<path d="M32 27.1475H22.894L22.265 20.1005H32V13.2195H14.7445L14.9095 15.0655L16.6005 34.029H32V27.1475ZM32 45.019L31.9695 45.0275L24.306 42.9575L23.8165 37.47H16.908L17.872 48.2745L31.9685 52.1875L32 52.179V45.019Z" fill="#EBEBEB"/>
<path d="M31.976 27.1475V34.029H40.4495L39.651 42.9535L31.976 45.025V52.1845L46.0835 48.2745L46.187 47.112L47.804 28.9955L47.9715 27.1475H46.1175H31.976ZM31.976 13.2195V20.1005H48.598L48.736 18.5545L49.05 15.0655L49.2145 13.2195H31.976Z" fill="white"/>
</g>
<defs>
<clipPath id="clip0_118_205">
<rect width="64" height="64" fill="white" transform="translate(0 0.919922)"/>
</clipPath>
</defs>
</svg>
