<svg width="64" height="65" viewBox="0 0 64 65" fill="none" xmlns="http://www.w3.org/2000/svg">
<g clip-path="url(#clip0_118_220)">
<path d="M23.8085 49.98C23.8085 49.98 21.425 51.367 25.507 51.835C30.453 52.4 32.9805 52.319 38.4295 51.289C38.4295 51.289 39.865 52.1865 41.866 52.9645C29.6465 58.1995 14.212 52.661 23.8085 49.98ZM22.3145 43.1475C22.3145 43.1475 19.6405 45.127 23.726 45.55C29.0095 46.0955 33.181 46.14 40.403 44.75C40.403 44.75 41.3995 45.7625 42.969 46.3155C28.198 50.6355 11.746 46.6555 22.3145 43.1475Z" fill="#0074BD"/>
<path d="M34.901 31.5554C37.9135 35.0229 34.111 38.1404 34.111 38.1404C34.111 38.1404 41.7555 34.1949 38.2455 29.2519C34.966 24.6444 32.452 22.3559 46.063 14.4619C46.063 14.4624 24.6975 19.7969 34.901 31.5554Z" fill="#EA2D2E"/>
<path d="M51.0615 55.0344C51.0615 55.0344 52.826 56.4894 49.1175 57.6139C42.0665 59.7499 19.7645 60.3939 13.5705 57.6994C11.345 56.7304 15.52 55.3869 16.8335 55.1034C18.203 54.8069 18.985 54.8609 18.985 54.8609C16.5085 53.1174 2.97846 58.2859 12.1135 59.7684C37.024 63.8064 57.522 57.9499 51.0615 55.0344ZM24.956 36.0669C24.956 36.0669 13.613 38.7614 20.9395 39.7409C24.0335 40.1549 30.1985 40.0599 35.945 39.5779C40.64 39.1834 45.3515 38.3409 45.3515 38.3409C45.3515 38.3409 43.6975 39.0504 42.4995 39.8674C30.9785 42.8979 8.72746 41.4864 15.134 38.3884C20.55 35.7689 24.956 36.0669 24.956 36.0669ZM45.3045 47.4404C57.015 41.3569 51.6 35.5104 47.8205 36.2979C46.8965 36.4904 46.482 36.6579 46.482 36.6579C46.482 36.6579 46.826 36.1184 47.482 35.8864C54.9585 33.2589 60.7075 43.6379 45.0705 47.7489C45.0705 47.7479 45.25 47.5854 45.3045 47.4404Z" fill="#0074BD"/>
<path d="M38.2455 1.71338C38.2455 1.71338 44.7295 8.20138 32.094 18.1749C21.961 26.1779 29.7835 30.7399 32.0905 35.9544C26.175 30.6179 21.836 25.9194 24.7465 21.5469C29.0205 15.1299 40.861 12.0174 38.2455 1.71338Z" fill="#EA2D2E"/>
<path d="M26.1069 63.9304C37.3449 64.6489 54.6069 63.5304 55.0154 58.2124C55.0154 58.2124 54.2299 60.2284 45.7269 61.8279C36.1339 63.6339 24.2999 63.4234 17.2834 62.2649C17.2834 62.2654 18.7209 63.4554 26.1069 63.9304Z" fill="#0074BD"/>
</g>
<defs>
<clipPath id="clip0_118_220">
<rect width="64" height="64" fill="white" transform="translate(0 0.919922)"/>
</clipPath>
</defs>
</svg>
