<svg width="64" height="65" viewBox="0 0 64 65" fill="none" xmlns="http://www.w3.org/2000/svg">
<g clip-path="url(#clip0_118_217)">
<path d="M1 1.91992H63.592V64.5124H1V1.91992Z" fill="#F0DB4F"/>
<path d="M58.1735 49.2879C57.715 46.4324 55.853 44.0339 50.3375 41.7974C48.4215 40.9169 46.2855 40.2864 45.649 38.8344C45.423 37.9894 45.393 37.5134 45.536 37.0019C45.9465 35.3419 47.928 34.8244 49.4985 35.3004C50.51 35.6394 51.4675 36.4189 52.045 37.6624C54.746 35.9134 54.7405 35.9249 56.6265 34.7229C55.936 33.6524 55.5675 33.1584 55.1155 32.7004C53.491 30.8859 51.2775 29.9514 47.7375 30.0229L45.8935 30.2614C44.1265 30.7079 42.4425 31.6354 41.455 32.8789C38.492 36.2409 39.337 42.1249 42.9425 44.5464C46.4945 47.2124 51.7125 47.8189 52.379 50.3119C53.0275 53.3639 50.136 54.3519 47.262 54.0009C45.144 53.5604 43.966 52.4839 42.6925 50.5264C40.3485 51.8829 40.3485 51.8829 37.9385 53.2689C38.51 54.5184 39.1105 55.0839 40.0685 56.1664C44.6025 60.7654 55.9485 60.5394 57.9835 53.5784C58.066 53.3394 58.614 51.7454 58.1735 49.2879ZM34.731 30.3914H28.8765L28.8525 45.5274C28.8525 48.7464 29.019 51.6974 28.4955 52.6019C27.639 54.3809 25.4195 54.1604 24.408 53.8154C23.3785 53.3094 22.855 52.5899 22.2485 51.5729C22.082 51.2809 21.957 51.0549 21.915 51.0374L17.155 53.9524C17.9465 55.5769 19.1125 56.9869 20.606 57.9029C22.837 59.2419 25.8355 59.6524 28.9715 58.9324C31.0125 58.3379 32.7735 57.1064 33.6955 55.2319C35.0285 52.7744 34.7425 49.7999 34.7305 46.5099C34.7605 41.1424 34.731 35.7759 34.731 30.3914Z" fill="#323330"/>
</g>
<defs>
<clipPath id="clip0_118_217">
<rect width="64" height="64" fill="white" transform="translate(0 0.919922)"/>
</clipPath>
</defs>
</svg>
