<svg width="64" height="65" viewBox="0 0 64 65" fill="none" xmlns="http://www.w3.org/2000/svg">
<path d="M46.9045 46.9759C47.297 43.7094 47.1795 43.2299 49.6125 43.7594L50.23 43.8134C52.101 43.8984 54.5485 43.5124 55.9865 42.8444C59.082 41.4079 60.917 39.0104 57.8655 39.6399C50.9035 41.0764 50.425 38.7189 50.425 38.7189C57.7765 27.8114 60.8495 13.9649 58.1965 10.5754C50.9615 1.33091 38.438 5.70241 38.2285 5.81541L38.1615 5.82791C36.786 5.54241 35.2465 5.37191 33.517 5.34391C30.3665 5.29191 27.976 6.16991 26.1625 7.54491C26.1625 7.54491 3.821 -1.65959 4.8605 19.1204C5.0815 23.5409 11.1965 52.5694 18.4905 43.8014C21.1565 40.5954 23.7325 37.8844 23.7325 37.8844C25.0115 38.7339 26.5435 39.1679 28.1495 39.0119L28.274 38.9059C28.235 39.3039 28.252 39.6934 28.3235 40.1544C26.445 42.2539 26.997 42.6224 23.2405 43.3954C19.4395 44.1784 21.6725 45.5729 23.13 45.9374C24.8975 46.3794 28.986 47.0054 31.749 43.1384L31.639 43.5794C32.376 44.1694 32.3265 47.8179 32.4305 50.4244C32.535 53.0314 32.7095 55.4639 33.241 56.8984C33.7725 58.3324 34.3995 62.0264 39.3365 60.9684C43.4625 60.0864 46.617 58.8139 46.9045 46.9759Z" fill="black"/>
<path d="M37.729 63.5478C35.5455 63.5478 34.1235 62.7033 33.26 61.8878C31.9565 60.6578 31.4395 59.0733 31.1305 58.1268L30.997 57.7318C30.375 56.0528 30.164 53.6353 30.039 50.5223C30.02 50.0548 30.007 49.5733 29.9925 49.0628C29.982 48.6893 29.969 48.2208 29.95 47.7308C29.1634 48.1059 28.3284 48.3698 27.469 48.5148C25.9295 48.7778 24.2745 48.6928 22.549 48.2613C21.3315 47.9568 20.0665 47.3258 19.3455 46.3513C17.244 48.1918 15.2395 47.9423 14.1475 47.5778C12.221 46.9353 10.497 45.1298 8.87651 42.0593C7.72201 39.8718 6.60551 37.0218 5.55751 33.5878C3.73251 27.6078 2.57301 21.3093 2.47001 19.2413C2.14601 12.7688 3.88851 8.13983 7.64801 5.48433C13.5785 1.29533 22.564 3.75883 25.84 4.87733C28.041 3.55083 30.6305 2.90533 33.5565 2.95183C35.128 2.97733 36.6245 3.11533 38.0145 3.36333C39.4645 2.90733 42.3285 2.25283 45.607 2.29383C51.6475 2.36583 56.653 4.71983 60.0815 9.10133C62.5285 12.2273 61.3185 18.7918 60.38 22.4268C59.059 27.5398 56.7445 32.9778 53.9015 37.7118C54.6735 37.7173 55.792 37.6248 57.382 37.2963C60.519 36.6488 61.4365 38.3308 61.6855 39.0838C62.683 42.1048 58.347 44.3878 56.9945 45.0158C55.2615 45.8203 52.436 46.3103 50.122 46.2043L50.021 46.1978L49.413 46.1443L49.353 46.6513L49.295 47.1468C49.1395 53.1463 48.2825 56.9458 46.519 59.4563C44.6705 62.0883 42.1015 62.8258 39.8385 63.3108C39.0665 63.4758 38.365 63.5478 37.729 63.5478ZM33.134 41.7123C34.5435 42.8403 34.667 44.9628 34.7775 48.9293C34.7915 49.4243 34.8045 49.8928 34.822 50.3303C34.875 51.6553 34.9995 54.7578 35.4855 56.0688C35.554 56.2543 35.6155 56.4423 35.6805 56.6418C36.222 58.2998 36.4935 59.1313 38.835 58.6308C40.8005 58.2093 41.811 57.8313 42.602 56.7053C43.7515 55.0683 44.3945 51.7753 44.5125 46.9178L46.904 46.9758L44.529 46.6908L44.599 46.0978C44.8265 44.1428 44.9905 42.7308 46.297 41.7968C47.3455 41.0478 48.54 41.1203 49.4915 41.2918C48.446 40.5018 48.157 39.5753 48.08 39.1953L47.8805 38.2128L48.441 37.3813C51.6695 32.5913 54.3315 26.7043 55.7455 21.2293C57.1985 15.6038 56.7555 12.6163 56.3125 12.0513C50.448 4.55783 40.2785 7.65183 39.2165 8.00283L39.037 8.09983L38.137 8.26733L37.676 8.17183C36.405 7.90783 34.993 7.76183 33.4795 7.73733C31.1015 7.69733 29.183 8.25933 27.61 9.45283L26.5185 10.2803L25.252 9.75883C22.546 8.65233 14.598 6.42783 10.404 9.39833C8.07601 11.0473 7.01551 14.2783 7.25151 19.0018C7.32951 20.5613 8.38901 26.4648 10.137 32.1903C12.5525 40.1028 14.7475 42.7313 15.664 43.0368C15.824 43.0908 16.239 42.7683 16.652 42.2723C18.374 40.208 20.1571 38.1955 21.999 36.2373L23.384 34.7798L25.0585 35.8923C25.7335 36.3408 26.478 36.5953 27.2425 36.6433L31.236 33.2373L30.6575 39.1413C30.6445 39.2738 30.638 39.4543 30.69 39.7893L30.864 40.9083L30.109 41.7523L30.022 41.8503L32.216 42.8628L33.134 41.7123Z" fill="black"/>
<path d="M57.8655 39.6399C50.903 41.0764 50.4245 38.7189 50.4245 38.7189C57.776 27.8109 60.849 13.9639 58.197 10.5754C50.962 1.33139 38.4375 5.70289 38.2285 5.81639L38.161 5.82839C36.7855 5.54289 35.246 5.37289 33.5155 5.34489C30.365 5.29339 27.9755 6.17089 26.162 7.54589C26.162 7.54589 3.82 -1.65811 4.859 19.1214C5.08 23.5424 11.195 52.5709 18.489 43.8029C21.155 40.5969 23.7305 37.8859 23.7305 37.8859C25.01 38.7354 26.5415 39.1694 28.147 39.0134L28.272 38.9074C28.233 39.3054 28.251 39.6949 28.322 40.1559C26.443 42.2554 26.995 42.6239 23.2385 43.3969C19.4375 44.1799 21.6705 45.5744 23.1285 45.9389C24.8955 46.3809 28.9845 47.0069 31.747 43.1399L31.6365 43.5809C32.373 44.1709 32.89 47.4169 32.8035 50.3594C32.7165 53.3019 32.6585 55.3224 33.239 56.9004C33.819 58.4784 34.397 62.0284 39.335 60.9704C43.461 60.0864 45.599 57.7949 45.897 53.9729C46.108 51.2554 46.5855 51.6574 46.616 49.2279L46.9995 48.0779C47.4415 44.3944 47.0695 43.2064 49.612 43.7589L50.2295 43.8129C52.1005 43.8979 54.549 43.5119 55.9865 42.8439C59.0815 41.4084 60.917 39.0104 57.8655 39.6399Z" fill="#336791"/>
<path d="M37.9785 62.0735C33.8625 62.0735 32.5585 58.814 32.025 57.481C31.244 55.5275 31.0755 47.9465 31.2495 41.7295C31.2521 41.6246 31.2754 41.5213 31.3181 41.4255C31.3607 41.3297 31.4219 41.2433 31.4982 41.1713C31.5744 41.0993 31.6641 41.043 31.7622 41.0058C31.8602 40.9686 31.9647 40.9511 32.0695 40.9545C32.1742 40.9573 32.2773 40.9808 32.373 41.0235C32.4686 41.0663 32.5549 41.1274 32.6269 41.2036C32.6989 41.2797 32.7551 41.3692 32.7925 41.4671C32.8298 41.565 32.8475 41.6693 32.8445 41.774C32.644 48.9445 32.9285 55.4425 33.5065 56.8885C34.4085 59.143 35.7765 61.115 39.644 60.2865C43.3155 59.499 44.6905 58.107 45.303 54.5565C45.773 51.832 46.7025 44.081 46.817 42.5515C46.8246 42.4469 46.8528 42.345 46.9 42.2514C46.9471 42.1578 47.0123 42.0744 47.0917 42.006C47.1712 41.9376 47.2633 41.8856 47.3629 41.8529C47.4624 41.8202 47.5675 41.8075 47.672 41.8155C47.8829 41.8315 48.0788 41.9305 48.2168 42.0908C48.3548 42.251 48.4236 42.4595 48.408 42.6705C48.2885 44.263 47.3635 51.999 46.8755 54.828C46.1525 59.0215 44.283 60.9235 39.9785 61.8465C39.247 62.003 38.5825 62.073 37.9785 62.0735ZM15.6605 46.153C15.3007 46.1517 14.9435 46.0927 14.6025 45.978C11.929 45.086 9.38248 40.732 7.03348 33.0355C5.24548 27.177 4.11248 21.062 4.01298 19.0745C3.71848 13.1825 5.23548 9.01397 8.52298 6.68547C15.0265 2.07747 25.967 6.46547 26.4295 6.65447C26.6254 6.7345 26.7815 6.88908 26.8635 7.08421C26.9454 7.27935 26.9465 7.49904 26.8665 7.69497C26.7865 7.8909 26.6319 8.04701 26.4367 8.12896C26.2416 8.21092 26.0219 8.212 25.826 8.13197C25.7205 8.08897 15.2295 3.88597 9.44198 7.98947C6.63098 9.98247 5.34048 13.6855 5.60598 18.995C5.68948 20.6695 6.74798 26.6375 8.55898 32.5695C10.656 39.4405 13.0425 43.776 15.107 44.4645C15.431 44.5725 16.417 44.901 17.8265 43.206C19.4702 41.2319 21.1755 39.3099 22.94 37.443C23.0876 37.2957 23.287 37.2121 23.4956 37.21C23.7041 37.2079 23.9051 37.2875 24.0557 37.4318C24.2062 37.5761 24.2943 37.7736 24.3011 37.982C24.3079 38.1904 24.2328 38.3932 24.092 38.547C24.068 38.572 21.6685 41.0805 19.0535 44.2265C17.815 45.716 16.628 46.153 15.6605 46.153ZM50.375 39.4305C50.2303 39.4303 50.0885 39.3908 49.9646 39.3162C49.8406 39.2416 49.7393 39.1347 49.6714 39.007C49.6035 38.8793 49.5716 38.7355 49.5791 38.5911C49.5866 38.4467 49.6332 38.307 49.714 38.187C57.1455 27.1595 59.754 13.835 57.52 10.98C54.708 7.38697 50.7375 5.51047 45.718 5.40197C42.0015 5.32197 39.0475 6.27097 38.5645 6.43647L38.443 6.48597C37.9575 6.63847 37.585 6.37247 37.4445 6.06147C37.3644 5.88329 37.3522 5.68195 37.4104 5.49543C37.4685 5.30891 37.5928 5.15011 37.76 5.04897C37.783 5.03547 37.856 5.00447 37.9745 4.96097C38.795 4.66047 41.794 3.76047 45.5085 3.80297C51.0625 3.86197 55.6505 6.00347 58.7755 9.99697C60.254 11.8865 60.2575 16.2395 58.785 21.9405C57.284 27.753 54.4595 33.9995 51.0365 39.079C50.8835 39.3075 50.6315 39.4305 50.375 39.4305ZM50.755 44.5355C49.486 44.5355 48.3485 44.3565 47.6675 43.9485C46.9675 43.529 46.834 42.959 46.8165 42.6565C46.6255 39.3015 48.4765 38.7175 49.4205 38.451C49.289 38.252 49.102 38.018 48.9085 37.7765C48.358 37.0885 47.604 36.1465 47.023 34.7375C46.932 34.5175 46.647 34.006 46.317 33.4135C44.5275 30.2045 40.804 23.527 43.196 20.1075C44.303 18.525 46.5075 17.902 49.7555 18.2495C48.8 15.3385 44.25 6.23247 33.4535 6.05547C30.2065 6.00147 27.5435 6.99997 25.5425 9.02047C21.0625 13.545 21.2245 21.7315 21.227 21.8135C21.2297 21.9182 21.2118 22.0224 21.1743 22.1203C21.1368 22.2181 21.0804 22.3075 21.0082 22.3835C20.9361 22.4595 20.8498 22.5206 20.7541 22.5632C20.6584 22.6059 20.5552 22.6292 20.4505 22.632C20.3458 22.6347 20.2415 22.6168 20.1437 22.5793C20.0459 22.5418 19.9564 22.4853 19.8804 22.4132C19.8044 22.3411 19.7434 22.2548 19.7007 22.1591C19.6581 22.0634 19.6347 21.9602 19.632 21.8555C19.622 21.492 19.455 12.901 24.409 7.89747C26.7275 5.55597 29.7795 4.39997 33.48 4.46047C40.387 4.57397 44.833 8.08547 47.346 11.011C50.0855 14.1995 51.4285 17.7165 51.539 18.8905C51.6215 19.7635 50.995 19.938 50.8685 19.964L50.5805 19.9705C47.393 19.46 45.348 19.8145 44.5025 21.0225C42.683 23.623 46.2055 29.9395 47.7095 32.637C48.0935 33.325 48.3705 33.8225 48.4975 34.1295C48.9915 35.3275 49.636 36.1325 50.1535 36.7795C50.609 37.3485 51.0035 37.842 51.1445 38.421C51.21 38.536 52.1395 39.911 57.655 38.7725C59.0375 38.4875 59.8665 38.731 60.12 39.4975C60.6185 41.005 57.8215 42.7635 56.273 43.4825C54.8855 44.1275 52.671 44.5355 50.755 44.5355ZM48.407 42.525C48.582 42.7015 49.4575 43.006 51.2705 42.928C52.8825 42.859 54.5825 42.5085 55.6025 42.035C56.907 41.429 57.778 40.7515 58.229 40.289L57.979 40.335C54.4525 41.063 51.958 40.966 50.565 40.0465C50.4714 39.9846 50.3813 39.9177 50.295 39.846C50.144 39.9055 50.0045 39.9445 49.905 39.9725C49.115 40.194 48.298 40.4235 48.407 42.525ZM25.626 46.9825C24.75 46.9825 23.828 46.863 22.8865 46.6275C21.911 46.3835 20.2665 45.649 20.2915 44.4425C20.32 43.089 22.2885 42.683 23.0295 42.5305C25.7065 41.979 25.881 41.758 26.7175 40.6955C26.9615 40.386 27.265 40.0005 27.679 39.5385C28.2935 38.8505 28.965 38.502 29.675 38.502C30.1695 38.502 30.575 38.6695 30.843 38.781C31.697 39.135 32.4095 39.991 32.7025 41.0145C32.967 41.938 32.8405 42.827 32.3475 43.5175C30.729 45.784 28.4045 46.9825 25.626 46.9825ZM22.015 44.511C22.2555 44.697 22.7375 44.9455 23.274 45.0795C24.0895 45.2835 24.8805 45.387 25.6265 45.387C27.8995 45.387 29.7245 44.446 31.05 42.59C31.3265 42.203 31.2435 41.7115 31.1695 41.453C31.0145 40.9115 30.6295 40.419 30.233 40.2545C30.018 40.1655 29.8395 40.0975 29.6755 40.0975C29.5875 40.0975 29.3195 40.0975 28.8685 40.602C28.5573 40.952 28.2581 41.3125 27.9715 41.683C26.9295 43.006 26.452 43.455 23.352 44.0935C22.5955 44.2485 22.2075 44.4065 22.015 44.511ZM28.1495 40.831C27.959 40.8307 27.775 40.7623 27.6305 40.6381C27.4861 40.5139 27.3909 40.3422 27.362 40.154C27.3421 40.0215 27.3288 39.8882 27.322 39.7545C25.29 39.7165 23.3295 38.8445 21.841 37.2915C19.959 35.328 19.1025 32.6075 19.4915 29.828C19.914 26.8095 19.756 24.145 19.671 22.7135C19.6475 22.3155 19.6305 22.028 19.6315 21.829C19.633 21.5765 19.638 20.907 21.876 19.7725C22.672 19.369 24.268 18.665 26.0115 18.4845C28.9 18.186 30.804 19.4725 31.374 22.1075C32.9125 29.2215 31.496 32.368 30.4615 34.666C30.269 35.094 30.087 35.498 29.9415 35.8895L29.813 36.2345C29.2665 37.7 28.794 38.966 28.939 39.9115C28.9549 40.015 28.9503 40.1207 28.9253 40.2225C28.9004 40.3242 28.8557 40.4201 28.7937 40.5045C28.7317 40.589 28.6537 40.6604 28.5641 40.7147C28.4745 40.769 28.375 40.8051 28.2715 40.821L28.1495 40.831ZM21.232 22.05L21.263 22.6195C21.351 24.1065 21.515 26.8735 21.071 30.0495C20.7505 32.342 21.4505 34.5795 22.9925 36.1875C24.211 37.4585 25.8145 38.16 27.4625 38.16H27.4965C27.681 37.3825 27.9875 36.5615 28.3175 35.677L28.445 35.334C28.6095 34.892 28.802 34.464 29.006 34.011C30.0015 31.799 31.241 29.0455 29.8135 22.445C29.531 21.1375 28.8455 20.381 27.719 20.1315C25.405 19.6205 21.9565 21.361 21.232 22.05ZM26.047 21.7115C26.007 21.9935 26.5635 22.7465 27.2895 22.847C28.014 22.9485 28.634 22.3595 28.6735 22.0775C28.713 21.7955 28.157 21.4845 27.431 21.3835C26.7055 21.2825 26.0855 21.4295 26.047 21.7115ZM27.456 23.1245L27.2525 23.1105C26.8025 23.048 26.3475 22.7645 26.036 22.3515C25.9265 22.2065 25.748 21.9255 25.7835 21.6745C25.834 21.3065 26.283 21.086 26.9835 21.086C27.14 21.086 27.303 21.0975 27.467 21.1205C27.85 21.1735 28.2055 21.284 28.468 21.4305C28.923 21.6845 28.9565 21.968 28.936 22.1145C28.88 22.521 28.2335 23.1245 27.456 23.1245ZM26.3115 21.7585C26.334 21.9325 26.765 22.5065 27.326 22.584L27.4565 22.593C27.9745 22.593 28.3615 22.1855 28.407 22.052C28.359 21.961 28.026 21.735 27.3945 21.647C27.2585 21.6275 27.1213 21.6176 26.984 21.6175C26.578 21.6175 26.3625 21.709 26.3115 21.7585ZM48.114 21.136C48.1535 21.418 47.5975 22.171 46.872 22.272C46.147 22.373 45.5265 21.7845 45.4865 21.5025C45.4485 21.2205 46.0045 20.909 46.7295 20.8085C47.4545 20.707 48.074 20.8545 48.114 21.136ZM46.7045 22.416C46.0065 22.416 45.404 21.873 45.3545 21.5205C45.297 21.0975 45.9935 20.776 46.7105 20.6765C46.8685 20.6545 47.025 20.6435 47.1755 20.6435C47.7945 20.6435 48.2045 20.825 48.2455 21.118C48.272 21.3075 48.1265 21.6 47.876 21.864C47.7105 22.0375 47.363 22.338 46.8895 22.4035L46.7045 22.416ZM47.176 20.9095C47.038 20.9095 46.894 20.92 46.748 20.94C46.0275 21.0405 45.5975 21.3295 45.6185 21.4845C45.6425 21.655 46.1025 22.1505 46.705 22.1505L46.8535 22.14C47.247 22.0855 47.5425 21.8285 47.6835 21.6805C47.905 21.448 47.993 21.229 47.9825 21.1545C47.9685 21.0555 47.7025 20.9095 47.176 20.9095ZM49.1585 37.331C49.0139 37.3311 48.8721 37.2918 48.7481 37.2175C48.6242 37.1432 48.5228 37.0365 48.4548 36.909C48.3867 36.7814 48.3547 36.6378 48.362 36.4934C48.3694 36.3491 48.4159 36.2094 48.4965 36.0895C50.1955 33.552 49.8845 30.9645 49.584 28.462C49.4555 27.396 49.3235 26.2935 49.3575 25.2355C49.3925 24.147 49.531 23.249 49.6645 22.3805C49.823 21.3515 49.973 20.3795 49.911 19.2255C49.9053 19.1209 49.9203 19.0162 49.9552 18.9174C49.99 18.8186 50.0439 18.7276 50.1139 18.6497C50.1838 18.5717 50.2685 18.5083 50.3629 18.4631C50.4574 18.4178 50.5599 18.3916 50.6645 18.386C50.7691 18.3803 50.8738 18.3953 50.9726 18.4301C51.0714 18.465 51.1623 18.5189 51.2403 18.5889C51.3182 18.6588 51.3816 18.7435 51.4269 18.8379C51.4721 18.9324 51.4983 19.0349 51.504 19.1395C51.575 20.4585 51.4055 21.5585 51.2415 22.623C51.115 23.4445 50.984 24.294 50.9525 25.2865C50.922 26.2235 51.0415 27.2185 51.168 28.2715C51.488 30.9325 51.8505 33.9485 49.8225 36.977C49.7495 37.086 49.6506 37.1754 49.5348 37.2371C49.419 37.2989 49.2897 37.3311 49.1585 37.331Z" fill="white"/>
</svg>
