<svg width="64" height="65" viewBox="0 0 64 65" fill="none" xmlns="http://www.w3.org/2000/svg">
<path d="M32 38.62C35.1481 38.62 37.7001 36.068 37.7001 32.92C37.7001 29.7719 35.1481 27.22 32 27.22C28.852 27.22 26.3 29.7719 26.3 32.92C26.3 36.068 28.852 38.62 32 38.62Z" fill="#61DAFB"/>
<path d="M53.65 23.52C52.55 23.12 51.4 22.72 50.2 22.37C50.5 21.17 50.75 19.97 50.95 18.82C52 12.22 50.85 7.56997 47.65 5.76997C46.7 5.21997 45.65 4.96997 44.45 4.96997C40.95 4.96997 36.5 7.56997 32 11.92C27.5 7.56997 23.05 4.96997 19.55 4.96997C18.35 4.96997 17.3 5.21997 16.35 5.76997C13.15 7.61997 12 12.27 13.05 18.82C13.25 19.97 13.5 21.17 13.8 22.37C12.6 22.72 11.45 23.07 10.35 23.52C4.10001 25.92 0.700012 29.22 0.700012 32.92C0.700012 36.62 4.15001 39.92 10.35 42.32C11.45 42.72 12.6 43.12 13.8 43.47C13.5 44.67 13.25 45.87 13.05 47.02C12 53.62 13.15 58.27 16.35 60.07C17.3 60.62 18.35 60.87 19.55 60.87C23.1 60.87 27.55 58.27 32 53.92C36.5 58.27 40.95 60.87 44.45 60.87C45.65 60.87 46.7 60.62 47.65 60.07C50.85 58.22 52 53.57 50.95 47.02C50.75 45.87 50.5 44.67 50.2 43.47C51.4 43.12 52.55 42.77 53.65 42.32C59.9 39.92 63.3 36.62 63.3 32.92C63.3 29.22 59.9 25.92 53.65 23.52ZM46.25 8.26997C48.3 9.46997 49 13.17 48.15 18.42C48 19.47 47.75 20.57 47.45 21.72C44.85 21.12 42.1 20.72 39.2 20.47C37.5 18.07 35.75 15.92 34 13.97C37.7 10.32 41.45 7.81997 44.5 7.81997C45.15 7.81997 45.75 7.96997 46.25 8.26997ZM40.65 37.92C39.75 39.52 38.7 41.12 37.6 42.72C35.75 42.87 33.9 42.92 32 42.92C30.05 42.92 28.2 42.87 26.4 42.72C25.3 41.12 24.3 39.52 23.4 37.92C22.45 36.27 21.55 34.57 20.75 32.92C21.55 31.27 22.45 29.57 23.4 27.92C24.3 26.32 25.35 24.72 26.45 23.12C28.3 22.97 30.15 22.92 32.05 22.92C34 22.92 35.85 22.97 37.65 23.12C38.75 24.72 39.75 26.32 40.65 27.92C41.6 29.57 42.5 31.27 43.3 32.92C42.45 34.57 41.6 36.22 40.65 37.92ZM44.8 36.27C45.55 38.02 46.15 39.72 46.7 41.42C45 41.82 43.2 42.12 41.3 42.37C41.9 41.42 42.55 40.42 43.1 39.37C43.7 38.32 44.25 37.27 44.8 36.27ZM32 49.82C30.8 48.52 29.65 47.12 28.55 45.67C29.7 45.72 30.85 45.77 32 45.77C33.15 45.77 34.3 45.72 35.45 45.67C34.35 47.12 33.2 48.52 32 49.82ZM22.7 42.32C20.8 42.07 19 41.77 17.3 41.37C17.85 39.72 18.45 37.97 19.2 36.22C19.75 37.22 20.3 38.27 20.9 39.27C21.5 40.37 22.1 41.32 22.7 42.32ZM19.2 29.57C18.45 27.82 17.85 26.12 17.3 24.42C19 24.02 20.8 23.72 22.7 23.47C22.1 24.42 21.45 25.42 20.9 26.47C20.3 27.52 19.75 28.57 19.2 29.57ZM32 16.02C33.2 17.32 34.35 18.72 35.45 20.17C34.3 20.12 33.15 20.07 32 20.07C30.85 20.07 29.7 20.12 28.55 20.17C29.65 18.72 30.8 17.32 32 16.02ZM43.1 26.52L41.3 23.52C43.2 23.77 45 24.07 46.7 24.47C46.15 26.12 45.55 27.87 44.8 29.62C44.25 28.57 43.7 27.52 43.1 26.52ZM15.85 18.42C15 13.17 15.7 9.46997 17.75 8.26997C18.25 7.96997 18.85 7.81997 19.5 7.81997C22.5 7.81997 26.25 10.27 30 13.97C28.25 15.87 26.5 18.07 24.8 20.47C21.9 20.72 19.15 21.17 16.55 21.72C16.25 20.57 16.05 19.47 15.85 18.42ZM3.50001 32.92C3.50001 30.57 6.35001 28.07 11.35 26.22C12.35 25.82 13.45 25.47 14.55 25.17C15.35 27.67 16.35 30.32 17.55 32.97C16.35 35.62 15.3 38.22 14.55 40.72C7.65001 38.72 3.50001 35.72 3.50001 32.92ZM17.75 57.57C15.7 56.37 15 52.67 15.85 47.42C16 46.37 16.25 45.27 16.55 44.12C19.15 44.72 21.9 45.12 24.8 45.37C26.5 47.77 28.25 49.92 30 51.87C26.3 55.52 22.55 58.02 19.5 58.02C18.85 58.02 18.25 57.87 17.75 57.57ZM48.15 47.42C49 52.67 48.3 56.37 46.25 57.57C45.75 57.87 45.15 58.02 44.5 58.02C41.5 58.02 37.75 55.57 34 51.87C35.75 49.97 37.5 47.77 39.2 45.37C42.1 45.12 44.85 44.67 47.45 44.12C47.75 45.27 47.95 46.37 48.15 47.42ZM52.65 39.62C51.65 40.02 50.55 40.37 49.45 40.67C48.65 38.17 47.65 35.52 46.45 32.87C47.65 30.22 48.7 27.62 49.45 25.12C56.35 27.12 60.5 30.12 60.5 32.92C60.5 35.27 57.6 37.77 52.65 39.62Z" fill="#61DAFB"/>
</svg>
