<svg width="64" height="65" viewBox="0 0 64 65" fill="none" xmlns="http://www.w3.org/2000/svg">
<g clip-path="url(#clip0_118_240)">
<path d="M58.226 4.24148C57.3297 6.39182 56.1822 8.42863 54.8075 10.3095C48.7845 4.28993 40.6179 0.908017 32.1025 0.906982C14.492 0.906982 2.97537e-08 15.411 2.97537e-08 33.041C-0.000187236 37.3945 0.883601 41.7027 2.5978 45.7046C4.31201 49.7064 6.82092 53.3185 9.9725 56.322L11.1565 57.372C16.943 62.2507 24.2668 64.9286 31.8355 64.933C48.579 64.933 62.654 51.813 63.846 35.0915C64.7215 26.906 62.3205 16.553 58.226 4.24148ZM14.5335 56.505C14.2757 56.8226 13.9504 57.0787 13.5811 57.2546C13.2119 57.4305 12.808 57.5219 12.399 57.522C10.89 57.522 9.6555 56.28 9.6555 54.771C9.6555 53.2625 10.898 52.0205 12.399 52.0205C13.024 52.0205 13.6415 52.237 14.125 52.6375C15.3005 53.5875 15.484 55.3295 14.5335 56.505ZM58.093 46.886C50.1715 57.447 33.253 53.8875 22.405 54.396C22.405 54.396 20.479 54.513 18.5445 54.8295C18.5445 54.8295 19.2695 54.521 20.212 54.1625C27.825 51.512 31.427 50.995 36.0545 48.6195C44.768 44.185 53.3815 34.4825 55.1745 24.388C51.856 34.099 41.7995 42.443 32.636 45.8355C26.3575 48.153 15.017 50.4035 15.017 50.4035L14.5585 50.1615C6.8375 46.4025 6.6035 29.673 20.637 24.2715C26.7825 21.904 32.661 23.2045 39.2985 21.6205C46.386 19.937 54.5825 14.6185 57.9175 7.68348C61.653 18.7785 66.148 36.1495 58.093 46.886Z" fill="#77BC1F"/>
</g>
<defs>
<clipPath id="clip0_118_240">
<rect width="64" height="64" fill="white" transform="translate(0 0.919922)"/>
</clipPath>
</defs>
</svg>
