<svg width="32" height="32" viewBox="0 0 32 32" fill="none" xmlns="http://www.w3.org/2000/svg">
<rect width="32" height="32" rx="5" fill="#70DA1C"/>
<path d="M12.8147 2.06857C13.5586 1.80066 14.333 2.34195 14.5474 3.27144L20.1478 27.7663C20.3622 28.6958 19.9291 29.6635 19.1852 29.9314C18.4414 30.1993 17.667 29.6581 17.4526 28.7286L11.8522 4.23374C11.6378 3.30425 12.0709 2.33648 12.8147 2.06857ZM9.28822 8.63515C9.83514 9.3186 9.83514 10.4285 9.28822 11.112L5.38104 16L9.2926 20.888C9.83952 21.5715 9.83952 22.6814 9.2926 23.3649C8.74568 24.0483 7.85749 24.0483 7.31057 23.3649L2.41019 17.2411C1.86327 16.5577 1.86327 15.4478 2.41019 14.7643L7.31057 8.64062C7.85749 7.95717 8.74568 7.95717 9.2926 8.64062L9.28822 8.63515ZM22.7074 8.63515C23.2543 7.9517 24.1425 7.9517 24.6894 8.63515L29.5898 14.7589C30.1367 15.4423 30.1367 16.5522 29.5898 17.2357L24.6894 23.3594C24.1425 24.0428 23.2543 24.0428 22.7074 23.3594C22.1605 22.6759 22.1605 21.566 22.7074 20.8826L26.619 16L22.7074 11.112C22.1605 10.4285 22.1605 9.3186 22.7074 8.63515Z" fill="#161616"/>
</svg>
